<svg xmlns="http://www.w3.org/2000/svg" width="40" height="40" viewBox="0 0 256 256">
  <path fill="#305440" d="M240 94c0 70-103.79 126.66-108.21 129a8 8 0 0 1-7.58 0C119.79 220.66 16 164 16 94a62.07 62.07 0 0 1 62-62c20.65 0 38.73 8.88 50 23.89C139.27 40.88 157.35 32 178 32a62.07 62.07 0 0 1 62 62"></path>
  <path fill="#ffffff" d="M178 28c-20.09 0-37.92 7.93-50 21.56C115.92 35.93 98.09 28 78 28a66.08 66.08 0 0 0-66 66c0 72.34 105.81 130.14 110.31 132.57a12 12 0 0 0 11.38 0C138.19 224.14 244 166.34 244 94a66.08 66.08 0 0 0-66-66m-5.49 142.36a328.69 328.69 0 0 1-44.51 31.8a328.69 328.69 0 0 1-44.51-31.8C61.82 151.77 36 123.42 36 94a42 42 0 0 1 42-42c17.8 0 32.7 9.4 38.89 24.54a12 12 0 0 0 22.22 0C145.3 61.4 160.2 52 178 52a42 42 0 0 1 42 42c0 29.42-25.82 57.77-47.49 76.36"></path>
</svg>
